<svg xmlns="http://www.w3.org/2000/svg" xmlns:xlink="http://www.w3.org/1999/xlink" width="234.00mm" height="234.00mm" viewBox="0 0 1020 663.4"><defs><linearGradient id="a" x1="1295.05" y1="1093.18" x2="1106.05" y2="1093.18" gradientTransform="translate(-392.3 -478.28)" gradientUnits="userSpaceOnUse"><stop offset="0.11" stop-color="#4d4d4d"/><stop offset="0.49" stop-color="#49a588"/><stop offset="0.77" stop-color="#47dfaf"/><stop offset="0.9" stop-color="#46f5be"/></linearGradient><linearGradient id="b" x1="700.05" y1="881.18" x2="516.05" y2="881.18" gradientTransform="translate(-392.3 -478.28)" gradientUnits="userSpaceOnUse"><stop offset="0.12" stop-color="#4d4d4d"/><stop offset="0.26" stop-color="#4c7065"/><stop offset="0.57" stop-color="#49b795"/><stop offset="0.8" stop-color="#47e4b3"/><stop offset="0.91" stop-color="#46f5be"/></linearGradient></defs><path d="M418.4,115.74c-22-12-44.82-18.29-67.79-18.29-91.86,0-179.39,101-227.18,257l136,1H129.75v96H0l13.19-59.07C66.33,154.27,198.77.45,350.61.45,400.72.45,448.13,17,491.14,47.06,465.27,65.15,440.88,88.22,418.4,115.74Z" style="fill:#46f5be"/><path d="M615.75,614.9c0-143-30.53-276.68-86-376.43A423.94,423.94,0,0,0,491.2,180.2c22.67-28.34,47.4-50.09,73.27-64.1C648.06,218,703.91,379.23,712.18,566.4h7.57v97h-104Z" style="fill:#46f5be"/><path d="M632.2,0c-49.53,0-97,16.36-140.33,46.67-25.9,18.11-50.31,41.21-72.81,68.77C370,175.6,330,257,303.78,354.4h2v97h74.83l8.48-38.07c21.74-97.61,58.16-178.73,102.45-234.49,22.59-28.44,47.22-50.26,73-64.33,21.89-11.94,44.61-18.29,67.61-18.29,65.16,0,128.7,50.11,178.9,141.1C860,326,889.4,441.43,895.48,566.4h2.27v97h96V614.83C993.75,270.07,834.94,0,632.2,0Z" style="fill:#4d4d4d"/><rect x="713.75" y="566.4" width="189" height="97" style="fill:url(#a)"/><rect x="123.75" y="354.4" width="184" height="97" style="fill:url(#b)"/><path d="M564.43,115.65c-25.78,14-50.43,35.82-73,64.21-22.73-28.69-47.19-50.28-72.61-64.16C441.3,88.13,465.73,65,491.64,46.9,517.65,65.09,542,88.21,564.43,115.65Z" style="fill:#46f5be;opacity:0.7000000000000001"/></svg>